PathFileType	4	(X/Y/Z)	C:/Users/beibeiliu/ov580/test_trc/User3\sequence.27_training_dense_right.trc
DataRate	CameraRate	NumFrames	NumMarkers	Units	OrigDataRate	OrigDataStartFrame	OrigNumFrames
120	120	10	19	mm	120	32	62
Frame#	Time	ThumbCMC			ThumbMCP			ThumbIP			ThumbTip			IndexMCP			IndexPIP			IndexTip			MiddleMCP			MiddlePIP			MiddleTip			RingMCP			RingPIP			RingTip			PinkyMCP			PinkyPIP			PinkyTip			BackHand1			BackHand2			BackHand3	
		X0	Y0	Z0	X1	Y1	Z1	X2	Y2	Z2	X3	Y3	Z3	X4	Y4	Z4	X5	Y5	Z5	X6	Y6	Z6	X7	Y7	Z7	X8	Y8	Z8	X9	Y9	Z9	X10	Y10	Z10	X11	Y11	Z11	X12	Y12	Z12	X13	Y13	Z13	X14	Y14	Z14	X15	Y15	Z15	X16	Y16	Z16	X17	Y17	Z17	X18	Y18	Z18	
31	0.258333	90.9139	27.2707	-6.46646	78.9731	36.9181	-33.9608	69.1692	45.1599	-56.4768	59.8668	54.0492	-75.7242	41.9408	-2.26894	-55.7988	16.93	9.47117	-35.0429	40.8446	11.7921	-12.0669	32.0515	-19.7847	-46.9771	15.5749	-7.13416	-22.4237	52.8134	0.742975	-4.28602	32.6957	-32.6987	-34.7998	16.6933	-19.7869	-12.7065	39.2149	-6.09743	4.46698	48.0029	-56.3769	-28.9476	29.403	-59.3832	-40.5186	7.83386	-62.6955	-51.016	89.6437	-34.8097	-18.1462	109.468	-27.6408	7.15911	102.079	-4.22224	-15.9697	
32	0.266667	107.855	34.9716	-7.03041	100.677	45.0753	-37.383	96.7937	54.9824	-63.7248	90.6669	63.3228	-81.9129	52.76	21.0866	-61.2705	33.1293	43.3534	-40.741	53.5858	37.2448	-19.5608	39.821	6.8868	-52.0434	25.4424	29.6082	-30.1753	56.8031	18.3681	-8.40438	32.5972	-6.02524	-39.678	18.6982	14.8023	-21.4863	45.8456	15.6124	0.78783	38.9959	-30.3702	-31.6978	18.3964	-31.9514	-42.8986	-2.28895	-26.2711	-58.2747	83.0986	-28.3784	-16.7535	97.3591	-27.0179	8.88044	103.494	-1.53051	-18.9421	
33	0.275	120.898	29.2118	-8.35232	123.729	40.2134	-33.8722	124.628	49.6858	-61.7024	125.495	57.2704	-84.4598	69.7053	38.6599	-66.9616	57.1997	61.2133	-49.2767	72.7181	46.1768	-24.0716	50.5883	23.6331	-55.2775	43.9523	51.7301	-36.9656	70.1389	34.2029	-13.6319	37.3737	18.3646	-44.8636	32.0104	40.4088	-26.836	54.0897	32.5444	-4.35687	35.2672	-8.19696	-37.5548	19.6218	-3.42674	-49.5159	1.08112	2.29339	-66.9049	79.4805	-21.1322	-18.5421	92.088	-22.2085	6.23393	111.09	-0.160976	-16.7765	
34	0.283333	129.403	10.7815	-9.16134	139.027	17.6498	-36.5462	141.72	24.1091	-59.4469	150.191	30.319	-83.6536	85.1069	28.8368	-67.6951	85.301	59.4852	-51.9985	94.3925	41.8033	-28.1221	68.954	29.8905	-62.8568	67.3602	54.7089	-44.8467	84.5605	28.0305	-18.2332	53.2903	22.7761	-51.1094	50.7482	47.6385	-36.9529	74.2343	35.9573	-11.4096	40.2571	1.43609	-40.3447	26.4108	9.83844	-54.3492	15.8011	17.0974	-72.1115	74.9298	-21.4129	-15.0574	87.6667	-26.0405	11.2565	110.453	-13.8873	-17.2139	
35	0.291667	135.506	-13.4619	-1.28921	146.989	-12.4394	-33.0733	156.897	-9.91679	-57.3476	160.367	-6.47115	-77.8588	102.79	6.31475	-72.6078	100.432	33.7951	-61.374	110.911	21.8253	-32.0349	80.4498	8.97588	-67.6542	84.9102	36.4827	-52.441	93.022	14.2188	-21.2235	62.3241	4.86712	-54.5258	70.6058	35.0073	-46.2032	84.2016	22.3167	-16.2159	47.3628	-10.872	-44.9882	39.2635	-3.37395	-57.158	26.9858	4.29076	-77.8338	78.6064	-37.1553	-14.1101	85.1236	-39.2184	17.8965	109.451	-36.5478	-9.63058	
36	0.3	140.932	-37.1369	2.70908	154.753	-38.0615	-20.332	167.882	-43.9173	-50.512	177.097	-42.9693	-67.2999	113.185	-31.3585	-69.6729	119.403	0.410067	-67.6429	119.318	-4.38518	-35.5169	97.5419	-26.5661	-69.7249	99.5593	3.2159	-63.1567	108.313	-9.65993	-24.2147	76.8368	-26.3129	-58.5896	83.3883	5.10696	-55.8508	95.9318	0.648103	-25.8194	56.3413	-36.5996	-41.5198	46.4983	-33.4829	-65.7829	42.2225	-32.1173	-81.1568	83.5209	-55.681	-8.07584	87.2899	-55.3652	18.8804	115.564	-57.9171	2.40614	
37	0.308333	151.098	-47.2303	13.8305	170.285	-52.6105	-9.99714	186.726	-61.3439	-37.6062	196.767	-62.5613	-54.7323	133.159	-60.7105	-61.5227	133.317	-29.6764	-69.1994	138.04	-25.5578	-34.5906	113.569	-57.6869	-66.2857	113.687	-25.8307	-66.2901	117.204	-29.0306	-26.3899	93.8054	-56.8091	-57.9328	99.0643	-23.9372	-61.6419	109.177	-18.6837	-32.8072	71.5458	-64.3473	-42.5098	65.6875	-66.2194	-64.9787	62.3826	-68.5919	-85.6836	95.4342	-75.8442	-0.0624457	93.684	-69.6775	25.4359	127.495	-74.2987	7.03588	
38	0.316667	166.269	-43.8625	19.7293	185.134	-45.9815	-3.752	205.112	-51.6859	-28.027	216.382	-49.7127	-43.2612	156.828	-67.028	-58.3801	153.254	-36.9948	-65.6194	149.208	-31.8595	-32.6645	134.938	-71.5396	-60.0065	133.998	-39.7558	-66.5023	134.695	-35.4856	-24.706	119.517	-71.3576	-56.8995	113.558	-44.2445	-64.7927	121.516	-29.3853	-34.4042	98.2654	-83.288	-37.0851	92.8391	-88.0197	-56.4755	92.8392	-93.9068	-78.1117	118.771	-83.6971	4.63533	116.624	-76.4096	29.8205	148.288	-77.1446	15.8613	
39	0.325	178.038	-22.4706	20.7067	193.789	-22.2656	-6.43927	210.606	-20.0873	-27.7054	222.808	-12.7543	-41.921	180.473	-53.4663	-50.2259	166.105	-27.3697	-66.8778	157.491	-18.4839	-33.7554	161.901	-62.1588	-59.1259	143.663	-34.4742	-63.6004	141.846	-32.1707	-23.9438	140.999	-71.5564	-55.1071	129.681	-45.4701	-63.2591	129.659	-29.8344	-32.768	131.773	-87.4735	-35.1587	128.476	-96.334	-55.9291	129.558	-103.282	-77.5999	143.841	-81.7913	6.95805	136.237	-72.2127	35.0332	172.011	-61.3287	19.0373	
40	0.333333	174.17	4.63752	17.8517	183.775	14.3478	-5.74805	198.829	26.8118	-26.9885	208.481	34.9023	-44.268	191.123	-21.3684	-51.945	164.05	-8.96147	-67.2556	153.148	-4.47636	-32.9385	176.192	-41.4641	-57.0295	151.841	-22.6729	-65.5301	144.959	-18.5498	-24.7621	164.029	-57.4445	-50.0505	141.85	-39.2616	-62.9307	130.244	-26.2856	-34.4753	161.527	-77.7707	-34.3192	164.84	-84.5295	-55.3874	169.087	-90.8801	-75.3431	173.261	-59.9752	7.01405	162.725	-57.3461	35.4617	182.66	-31.9975	19.2493	
